<svg xmlns="http://www.w3.org/2000/svg" width="1756" height="472"><path fill-rule="evenodd" d="M864.5 77.583c-5.5.721-12.25 1.973-15 2.782s-6.575 1.757-8.5 2.106c-1.925.35-5.075 1.236-7 1.97-1.925.733-6.875 2.613-11 4.177-20.246 7.677-36.821 18.338-53.337 34.305-23.048 22.282-38.127 49.078-44.782 79.577-6.433 29.483-4.234 54.769 7.608 87.5 4.712 13.022 16.932 34.421 26.135 45.763 4.055 4.999 14.29 15.398 20.845 21.181 4.318 3.809 21.382 15.582 24.835 17.134 1.208.543 5.121 2.537 8.696 4.433s7.106 3.455 7.846 3.467 2.54.661 4 1.442c5.868 3.141 22.589 7.462 37.654 9.732 10.668 1.607 46.321.522 55-1.674 30.304-7.667 49.305-16.648 69-32.611 20.944-16.975 34.651-35.177 47.343-62.867 3.376-7.364 8.707-25.877 10.223-35.5 1.146-7.274 1.092-41.065-.076-47.5-2.33-12.838-6.302-27.243-9.512-34.5-11.486-25.967-21.593-41.138-37.876-56.855-6.435-6.21-21.946-18.645-23.259-18.645-.294 0-1.729-.845-3.189-1.877-7.176-5.074-25.631-13.346-37.654-16.877-14.637-4.298-19.335-5.34-30.5-6.764-13.54-1.726-23.772-1.698-37.5.101m221.5 1.383c-11.237 1.318-20.4 6.96-23.55 14.499-1.332 3.189-1.278 4.047.622 9.766 1.146 3.448 2.695 7.619 3.443 9.269s2.239 5.025 3.311 7.5c4.278 9.869 9.939 22.126 25.174 54.5l7.881 16.75a12631 12631 0 0 0 17.841 37.75 8230 8230 0 0 1 8.517 18c2.203 4.675 6.816 14.35 10.252 21.5 6.076 12.644 10.147 21.225 18.624 39.25 19.819 42.142 34.552 71.117 38.118 74.967 2.074 2.239 8.249 4.655 14.87 5.818 5.595.982 16.761-2.153 20.584-5.781 3.373-3.201 19.519-34.876 37.595-73.754 1.918-4.125 5.391-11.55 7.718-16.5a4626 4626 0 0 0 7.713-16.5c1.915-4.125 4.974-10.65 6.796-14.5 3.045-6.432 6.605-14.11 13.212-28.5 1.389-3.025 4.226-9.1 6.305-13.5 3.683-7.796 7.37-15.736 13.929-30 1.771-3.85 4.711-10.15 6.534-14s4.525-9.7 6.005-13 4.176-9.15 5.991-13 4.198-9.025 5.296-11.5 3.105-6.975 4.462-10 3.484-8.2 4.727-11.5 2.842-7.391 3.553-9.092c.711-1.7 1.604-5.575 1.983-8.61 1.06-8.485-2.391-13.648-11.951-17.877-7.231-3.199-22.278-3.123-32.422.162-11.14 3.608-12.798 5.736-27.373 35.14-6.891 13.902-14.381 29.215-16.645 34.027a9175 9175 0 0 1-8.019 17c-2.147 4.537-5.343 11.4-7.102 15.25s-4.548 9.925-6.198 13.5c-1.649 3.575-3.817 8.3-4.817 10.5s-3.691 8.05-5.979 13-4.974 10.8-5.968 13c-14.437 31.934-19.997 43.5-20.914 43.5-.408 0-1.655-1.238-2.77-2.75-2.427-3.291-26.279-51.648-37.856-76.75-11.736-25.448-36.62-76.315-44.027-90-2.381-4.4-4.801-9.019-5.378-10.264-2.825-6.101-8.688-12.486-13.888-15.124-4.406-2.235-16.793-3.25-26.199-2.146m-776.083.448c-.229.228-39.567.959-87.417 1.625-47.85.665-87.675 1.563-88.5 1.995s-2.625 3.638-4 7.126c-2.246 5.695-2.495 7.72-2.447 19.904.05 12.508.24 13.87 2.455 17.5 3.033 4.973 5.062 6.472 11.954 8.834 4.913 1.683 9.829 1.965 43.538 2.5l38 .602.778 112.5c.932 134.599.401 128.634 11.99 134.742 4.869 2.567 6.064 2.758 17.232 2.758 10.652 0 12.561-.272 17-2.421 5.383-2.607 10.279-7.28 11.053-10.55 2.199-9.296 2.694-29.404 3.14-127.732.365-80.542.783-107.947 1.659-108.674.692-.575 16.687-1.139 39.159-1.381 35.953-.387 38.337-.527 44.489-2.615 8.643-2.933 10.971-5.907 12.086-15.432 1.151-9.844.065-27.471-1.904-30.894-2.374-4.126-6.109-6.395-14.317-8.698C359.2 79.232 355.72 79 334.353 79c-13.211 0-24.207.187-24.436.414M1486 81.344c-8.56 5.273-9.789 7.157-26.648 40.866-11.041 22.077-14.769 29.795-21.878 45.29l-6.193 13.5c-1.387 3.025-3.992 8.65-5.787 12.5-3.543 7.6-7.686 16.679-10.495 23-1.792 4.033-5.43 11.879-12.753 27.5a2430 2430 0 0 0-7.194 15.5c-1.765 3.85-4.475 9.7-6.021 13s-4.48 9.6-6.519 14-5.197 11.15-7.017 15-4.528 9.7-6.018 13-4.168 9.15-5.951 13-3.586 8.125-4.006 9.5-1.107 2.95-1.525 3.5-2.95 6.4-5.626 13c-4.146 10.225-4.866 12.994-4.867 18.718-.002 6.446.14 6.84 3.498 9.694 8.094 6.881 30.388 9.534 42.389 5.044 10.218-3.823 15.213-10.852 31.59-44.456 4.557-9.35 8.971-17.788 9.808-18.75 1.369-1.573 3.876-1.75 24.754-1.75 40.984 0 103.828 1.976 105.121 3.306 1.241 1.275 4.101 6.527 14.81 27.194 13.473 26.002 17.457 31.505 24.645 34.041 6.027 2.127 14.641 2.69 23.883 1.561 12.946-1.581 15.786-2.692 21.185-8.294 5.274-5.471 5.932-8.216 3.362-14.024-.799-1.806-3.537-8.234-6.084-14.284s-5.492-12.912-6.546-15.25a820 820 0 0 1-3.979-9 959 959 0 0 0-3.404-7.75c-.738-1.65-2.285-5.137-3.438-7.75a4601 4601 0 0 0-4.096-9.25l-4-9-4-9-4-9-4-9-4-9-4-9-4-9-4-9-4.11-9.25c-1.16-2.613-3.231-7.225-4.602-10.25a1166 1166 0 0 1-7.539-17c-.838-1.925-2.744-6.2-4.237-9.5-3.564-7.878-3.842-8.509-14.537-33-13.115-30.032-20.188-45.608-22.026-48.5-.525-.825-1.358-2.423-1.851-3.551-1.519-3.473-6.777-10.804-9.836-13.717-5.989-5.7-9.553-6.741-22.723-6.638-10.48.082-12.492.374-15.539 2.25m-1025.224-.298c-16.162 1.883-17.147 3.216-19.929 26.954-1.056 9.016-1.347 36.664-1.347 128 0 106.77.15 117.567 1.799 129.277 2.076 14.735 3.914 18.744 10.075 21.968 3.605 1.885 5.769 2.16 17.126 2.175 11.979.016 13.432-.188 18.5-2.603 3.025-1.441 6.988-4.175 8.808-6.076 5.433-5.676 6.266-13.156 6.874-61.741.325-25.994.901-41.967 1.541-42.75.758-.927 6.371-1.25 21.708-1.25 14.994 0 21.145.344 22.353 1.25 1.583 1.187 4.557 5.619 18.102 26.971 43.338 68.319 52.012 79.665 65.614 85.825 3.873 1.754 24.555 2.41 31.339.994 5.078-1.06 6.598-1.977 11.649-7.028 7.392-7.392 8.139-10.257 4.494-17.229-1.481-2.832-3.474-6.304-4.43-7.716-4.955-7.322-10.052-15.17-10.052-15.476 0-.295-10.861-17.037-14.006-21.591-.569-.825-5.582-8.25-11.14-16.5-11.142-16.542-16.095-23.741-16.854-24.5-3.18-3.18-7-9.413-7-11.422 0-2.164.997-2.994 6.75-5.618 16.594-7.568 24.223-12.392 33.509-21.186 12.549-11.883 22.93-29.234 26.113-43.647 2.337-10.585 2.204-37.937-.236-48.127-1.876-7.84-7.486-20.327-12.578-28-4.186-6.309-15.935-17.763-23.058-22.48-6.753-4.472-16.337-9.441-18.3-9.489-.714-.017-2.615-.711-4.223-1.543-5.966-3.085-31.123-5.339-77.477-6.943-47.42-1.641-74.567-1.799-85.724-.499M867.5 135.989c-6.592 1.217-15.546 3.861-19.904 5.876-2.253 1.042-4.771 2.17-5.596 2.508s-2.4 1.171-3.5 1.85c-26.458 16.355-41.194 33.398-49.522 57.277-4.916 14.098-4.878 49.405.07 64 5.74 16.931 18.743 34.915 33.952 46.958 19.686 15.589 39.173 22.113 63.5 21.262 11.838-.414 23.854-2.329 29-4.62 17.815-7.932 28.504-14.928 39-25.524 7.164-7.232 17.5-20.858 17.5-23.071 0-.466.591-1.558 1.314-2.426 1.478-1.776 5.582-12.533 8.232-21.579 2.137-7.294 3.074-28.631 1.603-36.5-2.496-13.351-4.007-17.833-9.95-29.5-10.054-19.737-28.981-38.566-47.699-47.451a796 796 0 0 1-7.5-3.603c-2.528-1.243-12.155-3.966-19.5-5.515-4.811-1.015-25.399-.976-31 .058M505 138.206l-4.5 2.294-.314 22.5c-.173 12.375-.012 28.942.357 36.816.631 13.446.802 14.359 2.814 15.032 3.467 1.16 66.977-.559 81.143-2.196 8.34-.963 14.792-2.285 18-3.687 5.825-2.546 11.617-8.376 15.356-15.457 2.453-4.647 2.644-5.916 2.644-17.587 0-11.866-.163-12.901-2.87-18.252-5.693-11.252-15.109-16.365-35.63-19.346-8.105-1.178-20.503-1.78-42-2.041-30.183-.365-30.547-.345-35 1.924m992.454 41.044c-.388 1.787-1.536 4.825-2.552 6.75s-3.269 6.65-5.006 10.5c-1.736 3.85-4.95 10.825-7.142 15.5-6.917 14.755-10.429 22.317-13.237 28.5-1.499 3.3-3.988 8.7-5.53 12-3.572 7.641-4.139 10.228-2.391 10.898.756.29 18.593.839 39.639 1.219 34.372.622 38.4.529 39.59-.906 1.129-1.36.735-2.833-2.645-9.904-2.184-4.569-5.185-11.007-6.668-14.307s-4.186-9.15-6.006-13-4.704-10.037-6.408-13.75c-6.063-13.21-9.367-20.332-12.213-26.329-1.587-3.343-2.885-6.59-2.885-7.215 0-1.165-3.091-3.206-4.855-3.206-.542 0-1.303 1.463-1.691 3.25M876.5 211.888c-7.901 2.065-15.127 7.581-18.987 14.495-3.509 6.285-3.558 16.63-.112 23.4 2.768 5.437 5.132 7.742 12.099 11.791 4.223 2.454 6.088 2.906 12 2.907 6.337.002 7.521-.336 12.5-3.572 8.763-5.695 16-16.101 16-23.006 0-3.656-4.893-12.801-8.962-16.75-8.17-7.929-16.956-11.246-24.538-9.265"/></svg>